<svg width="284" height="278" viewBox="0 0 284 278" fill="none" xmlns="http://www.w3.org/2000/svg">
<path d="M45.4453 51H43.5547V41.8672L40.7656 42.8203V41.2188L45.2031 39.5859H45.4453V51Z" fill="black"/>
<rect x="1" y="21" width="86" height="50" stroke="black" stroke-width="2"/>
<path d="M145.953 51H138.305V49.6953L142.094 45.5625C142.641 44.9531 143.029 44.4453 143.258 44.0391C143.492 43.6276 143.609 43.2161 143.609 42.8047C143.609 42.263 143.456 41.8255 143.148 41.4922C142.846 41.1589 142.438 40.9922 141.922 40.9922C141.307 40.9922 140.831 41.1797 140.492 41.5547C140.154 41.9297 139.984 42.4427 139.984 43.0938H138.086C138.086 42.401 138.242 41.7786 138.555 41.2266C138.872 40.6693 139.323 40.237 139.906 39.9297C140.495 39.6224 141.172 39.4688 141.938 39.4688C143.042 39.4688 143.911 39.7474 144.547 40.3047C145.188 40.8568 145.508 41.6224 145.508 42.6016C145.508 43.1693 145.346 43.7656 145.023 44.3906C144.706 45.0104 144.182 45.7161 143.453 46.5078L140.672 49.4844H145.953V51Z" fill="black"/>
<rect x="99" y="21" width="86" height="50" stroke="black" stroke-width="2"/>
<path d="M238.5 44.4453H239.656C240.24 44.4401 240.701 44.2891 241.039 43.9922C241.383 43.6953 241.555 43.2656 241.555 42.7031C241.555 42.1615 241.411 41.7422 241.125 41.4453C240.844 41.1432 240.411 40.9922 239.828 40.9922C239.318 40.9922 238.898 41.1406 238.57 41.4375C238.242 41.7292 238.078 42.112 238.078 42.5859H236.18C236.18 42.0026 236.333 41.4714 236.641 40.9922C236.953 40.513 237.385 40.1406 237.938 39.875C238.495 39.6042 239.117 39.4688 239.805 39.4688C240.94 39.4688 241.831 39.7552 242.477 40.3281C243.128 40.8958 243.453 41.6875 243.453 42.7031C243.453 43.2135 243.289 43.6953 242.961 44.1484C242.638 44.5964 242.219 44.9349 241.703 45.1641C242.328 45.3776 242.802 45.7135 243.125 46.1719C243.453 46.6302 243.617 47.1771 243.617 47.8125C243.617 48.8333 243.266 49.6458 242.562 50.25C241.865 50.8542 240.945 51.1562 239.805 51.1562C238.711 51.1562 237.815 50.8646 237.117 50.2812C236.419 49.6979 236.07 48.9219 236.07 47.9531H237.969C237.969 48.4531 238.135 48.8594 238.469 49.1719C238.807 49.4844 239.26 49.6406 239.828 49.6406C240.417 49.6406 240.88 49.4844 241.219 49.1719C241.557 48.8594 241.727 48.4062 241.727 47.8125C241.727 47.2135 241.549 46.7526 241.195 46.4297C240.841 46.1068 240.315 45.9453 239.617 45.9453H238.5V44.4453Z" fill="black"/>
<rect x="197" y="21" width="86" height="50" stroke="black" stroke-width="2"/>
<path d="M46.7266 108.945H48.1406V110.469H46.7266V113H44.8281V110.469H39.9141L39.8594 109.312L44.7656 101.625H46.7266V108.945ZM41.8516 108.945H44.8281V104.195L44.6875 104.445L41.8516 108.945Z" fill="black"/>
<rect x="1" y="83" width="86" height="50" stroke="black" stroke-width="2"/>
<rect width="88" height="52" transform="translate(98 82)" fill="black"/>
<path d="M138.812 107.359L139.43 101.625H145.539V103.266H141.008L140.695 105.984C141.221 105.682 141.815 105.531 142.477 105.531C143.56 105.531 144.401 105.878 145 106.57C145.604 107.263 145.906 108.195 145.906 109.367C145.906 110.523 145.573 111.445 144.906 112.133C144.24 112.815 143.326 113.156 142.164 113.156C141.122 113.156 140.258 112.862 139.57 112.273C138.888 111.68 138.518 110.898 138.461 109.93H140.297C140.37 110.482 140.568 110.906 140.891 111.203C141.214 111.495 141.635 111.641 142.156 111.641C142.74 111.641 143.193 111.432 143.516 111.016C143.844 110.599 144.008 110.031 144.008 109.312C144.008 108.62 143.828 108.073 143.469 107.672C143.109 107.266 142.615 107.062 141.984 107.062C141.641 107.062 141.349 107.109 141.109 107.203C140.87 107.292 140.609 107.469 140.328 107.734L138.812 107.359Z" fill="white"/>
<path d="M242.211 101.57V103.141H241.977C240.914 103.156 240.065 103.448 239.43 104.016C238.794 104.583 238.417 105.388 238.297 106.43C238.906 105.789 239.685 105.469 240.633 105.469C241.638 105.469 242.43 105.823 243.008 106.531C243.591 107.24 243.883 108.154 243.883 109.273C243.883 110.43 243.542 111.367 242.859 112.086C242.182 112.799 241.292 113.156 240.188 113.156C239.052 113.156 238.13 112.737 237.422 111.898C236.719 111.06 236.367 109.961 236.367 108.602V107.953C236.367 105.958 236.852 104.396 237.82 103.266C238.794 102.135 240.193 101.57 242.016 101.57H242.211ZM240.172 107C239.755 107 239.372 107.117 239.023 107.352C238.68 107.586 238.427 107.898 238.266 108.289V108.867C238.266 109.711 238.443 110.383 238.797 110.883C239.151 111.378 239.609 111.625 240.172 111.625C240.734 111.625 241.18 111.414 241.508 110.992C241.836 110.57 242 110.016 242 109.328C242 108.641 241.833 108.081 241.5 107.648C241.167 107.216 240.724 107 240.172 107Z" fill="black"/>
<rect x="197" y="83" width="86" height="50" stroke="black" stroke-width="2"/>
<path d="M47.875 164.68L43.3281 175H41.3359L45.875 165.148H39.9922V163.625H47.875V164.68Z" fill="black"/>
<rect x="1" y="145" width="86" height="50" stroke="black" stroke-width="2"/>
<path d="M145.469 166.625C145.469 167.182 145.326 167.68 145.039 168.117C144.753 168.549 144.362 168.891 143.867 169.141C144.461 169.417 144.917 169.794 145.234 170.273C145.557 170.753 145.719 171.294 145.719 171.898C145.719 172.898 145.38 173.693 144.703 174.281C144.026 174.865 143.125 175.156 142 175.156C140.87 175.156 139.964 174.862 139.281 174.273C138.604 173.685 138.266 172.893 138.266 171.898C138.266 171.289 138.427 170.742 138.75 170.258C139.073 169.773 139.526 169.401 140.109 169.141C139.62 168.891 139.232 168.549 138.945 168.117C138.664 167.68 138.523 167.182 138.523 166.625C138.523 165.656 138.836 164.888 139.461 164.32C140.086 163.753 140.93 163.469 141.992 163.469C143.06 163.469 143.906 163.753 144.531 164.32C145.156 164.888 145.469 165.656 145.469 166.625ZM143.82 171.805C143.82 171.242 143.651 170.789 143.312 170.445C142.979 170.096 142.536 169.922 141.984 169.922C141.432 169.922 140.99 170.094 140.656 170.438C140.328 170.781 140.164 171.237 140.164 171.805C140.164 172.362 140.326 172.807 140.648 173.141C140.977 173.474 141.427 173.641 142 173.641C142.573 173.641 143.018 173.479 143.336 173.156C143.659 172.833 143.82 172.383 143.82 171.805ZM143.578 166.695C143.578 166.201 143.435 165.794 143.148 165.477C142.862 165.154 142.477 164.992 141.992 164.992C141.508 164.992 141.125 165.146 140.844 165.453C140.562 165.755 140.422 166.169 140.422 166.695C140.422 167.216 140.562 167.63 140.844 167.938C141.13 168.245 141.516 168.398 142 168.398C142.484 168.398 142.867 168.245 143.148 167.938C143.435 167.63 143.578 167.216 143.578 166.695Z" fill="black"/>
<rect x="99" y="145" width="86" height="50" stroke="black" stroke-width="2"/>
<path d="M241.688 170.242C241.052 170.914 240.31 171.25 239.461 171.25C238.461 171.25 237.664 170.901 237.07 170.203C236.477 169.5 236.18 168.578 236.18 167.438C236.18 166.688 236.331 166.008 236.633 165.398C236.935 164.789 237.365 164.315 237.922 163.977C238.479 163.638 239.125 163.469 239.859 163.469C241.005 163.469 241.914 163.896 242.586 164.75C243.258 165.604 243.594 166.747 243.594 168.18V168.711C243.594 170.763 243.13 172.328 242.203 173.406C241.276 174.484 239.893 175.031 238.055 175.047H237.828V173.477H238.102C239.221 173.461 240.081 173.193 240.68 172.672C241.279 172.146 241.615 171.336 241.688 170.242ZM239.859 169.766C240.24 169.766 240.596 169.656 240.93 169.438C241.263 169.219 241.521 168.917 241.703 168.531V167.789C241.703 166.951 241.531 166.276 241.188 165.766C240.844 165.255 240.398 165 239.852 165C239.305 165 238.867 165.227 238.539 165.68C238.216 166.128 238.055 166.695 238.055 167.383C238.055 168.096 238.219 168.672 238.547 169.109C238.875 169.547 239.312 169.766 239.859 169.766Z" fill="black"/>
<rect x="197" y="145" width="86" height="50" stroke="black" stroke-width="2"/>
<path d="M68.6719 233.297C68.5573 234.51 68.1094 235.458 67.3281 236.141C66.5469 236.818 65.5078 237.156 64.2109 237.156C63.3047 237.156 62.5052 236.943 61.8125 236.516C61.125 236.083 60.5938 235.471 60.2188 234.68C59.8438 233.888 59.6484 232.969 59.6328 231.922V230.859C59.6328 229.786 59.8229 228.841 60.2031 228.023C60.5833 227.206 61.1276 226.576 61.8359 226.133C62.5495 225.69 63.3724 225.469 64.3047 225.469C65.5599 225.469 66.5703 225.81 67.3359 226.492C68.1016 227.174 68.5469 228.138 68.6719 229.383H66.7031C66.6094 228.565 66.3698 227.977 65.9844 227.617C65.6042 227.253 65.0443 227.07 64.3047 227.07C63.4453 227.07 62.7839 227.385 62.3203 228.016C61.862 228.641 61.6276 229.56 61.6172 230.773V231.781C61.6172 233.01 61.8359 233.948 62.2734 234.594C62.7161 235.24 63.362 235.562 64.2109 235.562C64.987 235.562 65.5703 235.388 65.9609 235.039C66.3516 234.69 66.599 234.109 66.7031 233.297H68.6719ZM78.4297 227.219H74.8828V237H72.9219V227.219H69.4062V225.625H78.4297V227.219ZM86.5781 231.922H81.9062V235.422H87.3672V237H79.9297V225.625H87.3125V227.219H81.9062V230.359H86.5781V231.922ZM90.9531 232.773V237H88.9766V225.625H93.3281C94.599 225.625 95.6068 225.956 96.3516 226.617C97.1016 227.279 97.4766 228.154 97.4766 229.242C97.4766 230.357 97.1094 231.224 96.375 231.844C95.6458 232.464 94.6224 232.773 93.3047 232.773H90.9531ZM90.9531 231.188H93.3281C94.0312 231.188 94.5677 231.023 94.9375 230.695C95.3073 230.362 95.4922 229.883 95.4922 229.258C95.4922 228.643 95.3047 228.154 94.9297 227.789C94.5547 227.419 94.0391 227.229 93.3828 227.219H90.9531V231.188ZM105.859 231.922H101.188V235.422H106.648V237H99.2109V225.625H106.594V227.219H101.188V230.359H105.859V231.922ZM116.633 227.219H113.086V237H111.125V227.219H107.609V225.625H116.633V227.219ZM120.203 229.977H122.531C123.365 229.977 124.091 230.12 124.711 230.406C125.331 230.693 125.802 231.099 126.125 231.625C126.448 232.151 126.609 232.76 126.609 233.453C126.609 234.516 126.247 235.37 125.523 236.016C124.805 236.661 123.823 236.99 122.578 237H118.227V225.625H120.203V229.977ZM120.203 231.562V235.422H122.523C123.19 235.422 123.708 235.242 124.078 234.883C124.453 234.518 124.641 234.036 124.641 233.438C124.641 232.865 124.458 232.411 124.094 232.078C123.729 231.745 123.224 231.573 122.578 231.562H120.203Z" fill="black"/>
<rect x="1" y="207" width="184" height="50" stroke="black" stroke-width="2"/>
<path d="M243.719 232.211C243.719 233.846 243.411 235.081 242.797 235.914C242.188 236.742 241.258 237.156 240.008 237.156C238.779 237.156 237.852 236.753 237.227 235.945C236.607 235.133 236.289 233.932 236.273 232.344V230.375C236.273 228.74 236.578 227.513 237.188 226.695C237.802 225.878 238.737 225.469 239.992 225.469C241.237 225.469 242.164 225.867 242.773 226.664C243.388 227.461 243.703 228.654 243.719 230.242V232.211ZM241.82 230.086C241.82 229.018 241.674 228.237 241.383 227.742C241.091 227.242 240.628 226.992 239.992 226.992C239.372 226.992 238.917 227.229 238.625 227.703C238.333 228.172 238.18 228.906 238.164 229.906V232.484C238.164 233.547 238.312 234.339 238.609 234.859C238.906 235.38 239.372 235.641 240.008 235.641C240.617 235.641 241.068 235.401 241.359 234.922C241.651 234.438 241.805 233.682 241.82 232.656V230.086Z" fill="black"/>
<rect x="197" y="207" width="86" height="50" stroke="black" stroke-width="2"/>
</svg>
